<?xml version="1.0" ?><!DOCTYPE svg  PUBLIC '-//W3C//DTD SVG 1.1//EN'  'http://www.w3.org/Graphics/SVG/1.1/DTD/svg11.dtd'><svg height="2048px" style="shape-rendering:geometricPrecision; text-rendering:geometricPrecision; image-rendering:optimizeQuality; fill-rule:evenodd; clip-rule:evenodd" viewBox="0 0 2048 2048" width="2048px" xml:space="preserve" xmlns="http://www.w3.org/2000/svg" xmlns:xlink="http://www.w3.org/1999/xlink"><defs><style type="text/css">
   <![CDATA[
    .fil1 {fill:none}
    .fil0 {fill:#FF7B0A;fill-rule:nonzero}
   ]]>
  </style></defs><g id="Layer_x0020_1"><path class="fil0" d="M272.471 570.08l0 -282.079 0 -16.0004 16.0004 0c410.031,0 781.933,166.909 1051.34,436.402 269.336,269.426 436.174,641.389 436.174,1051.6l0 16.0004 -16.0004 0 -282.992 0 -16.0004 0 0 -16.0004c0,-323.56 -131.538,-617.092 -343.903,-829.707 -212.277,-212.528 -505.373,-344.214 -828.617,-344.214l-16.0004 0 0 -16.0004z"/><path class="fil0" d="M272.015 1070.06l0 -282.079 0 -16.0004 16.0004 0c272.262,0 519.128,110.832 697.959,289.753 178.833,178.923 289.576,425.934 289.576,698.269l0 16.0004 -16.0004 0 -283.448 0 -16.0004 0 0 -16.0004c0,-90.4016 -17.4579,-177.951 -50.8311,-258.675 -33.3201,-80.5949 -82.5272,-154.512 -146.086,-217.8l-0.0625985 -0.0625985c-63.3414,-63.6107 -137.25,-112.971 -217.764,-146.432 -80.4461,-33.4335 -167.549,-50.9729 -257.342,-50.9729l-16.0004 0 0 -16.0004z"/><path class="fil0" d="M334.294 1413.49c38.3847,-38.2878 91.3194,-62.0611 149.555,-62.0611 58.6075,0 111.582,23.7047 149.961,61.8993 38.5311,38.3469 62.3268,91.2686 62.3268,149.444 0,58.4918 -23.713,111.332 -62.1296,149.569 -38.4012,38.2217 -91.4576,61.8071 -150.158,61.8071 -58.3264,0 -111.345,-23.6516 -149.751,-61.9689 -38.3174,-38.2276 -62.0823,-90.9993 -62.0823,-149.407 0,-58.0926 23.8477,-110.946 62.2784,-149.282z"/></g><rect class="fil1" height="2048" width="2048"/></svg>